<svg width="1200" height="1600" viewBox="0 0 1200 1600" xmlns="http://www.w3.org/2000/svg">
  <defs>
    <linearGradient id="bg" x1="0" y1="0" x2="1" y2="1">
      <stop offset="0%" stop-color="#e8f4f8"/>
      <stop offset="55%" stop-color="#f8f1e8"/>
      <stop offset="100%" stop-color="#d6f1ec"/>
    </linearGradient>
    <linearGradient id="coat" x1="0" y1="0" x2="0" y2="1">
      <stop offset="0%" stop-color="#ffffff"/>
      <stop offset="100%" stop-color="#e9eff7"/>
    </linearGradient>
    <linearGradient id="scrub" x1="0" y1="0" x2="1" y2="1">
      <stop offset="0%" stop-color="#7aa9f5"/>
      <stop offset="100%" stop-color="#4c7fe4"/>
    </linearGradient>
  </defs>

  <rect width="1200" height="1600" fill="url(#bg)"/>
  <circle cx="980" cy="240" r="180" fill="#fff4e8" opacity="0.7"/>
  <circle cx="160" cy="1320" r="220" fill="#d8f0ed" opacity="0.8"/>
  <circle cx="520" cy="180" r="120" fill="#d6e6ff" opacity="0.65"/>

  <g transform="translate(240,180)">
    <circle cx="360" cy="220" r="120" fill="#f1d3c2"/>
    <rect x="260" y="330" width="200" height="120" rx="60" fill="#f1d3c2"/>

    <path
      d="M140 500 C220 420 320 380 360 380 C400 380 500 420 580 500 L640 1060 C520 1180 420 1220 360 1220 C300 1220 200 1180 80 1060 L140 500 Z"
      fill="url(#coat)"
    />
    <path
      d="M260 520 C300 480 320 460 360 460 C400 460 420 480 460 520 L520 760 C460 840 420 880 360 880 C300 880 260 840 200 760 L260 520 Z"
      fill="url(#scrub)"
    />

    <path d="M220 760 C180 860 140 960 130 1080" stroke="#8ab0f5" stroke-width="18" fill="none" stroke-linecap="round"/>
    <path d="M500 760 C540 860 580 960 590 1080" stroke="#8ab0f5" stroke-width="18" fill="none" stroke-linecap="round"/>
    <circle cx="130" cy="1100" r="34" fill="#8ab0f5"/>
    <circle cx="590" cy="1100" r="34" fill="#8ab0f5"/>

    <rect x="240" y="900" width="240" height="260" rx="40" fill="#ffffff" opacity="0.7"/>
    <rect x="280" y="940" width="160" height="18" rx="9" fill="#c7d9f3"/>
    <rect x="280" y="980" width="120" height="18" rx="9" fill="#d7e3f7"/>
  </g>
</svg>
